<?xml version="1.0" encoding="UTF-8"?>
<svg xmlns="http://www.w3.org/2000/svg" xmlns:xlink="http://www.w3.org/1999/xlink" width="2835" height="2835"
    viewBox="0 0 2835 2835">
    <path fill-rule="evenodd" fill="rgb(100%, 100%, 100%)" fill-opacity="1"
        d="M 0 0.351562 L 2834.648438 0.351562 L 2834.648438 2835 L 0 2835 L 0 0.351562 " />
    <path fill-rule="evenodd" fill="rgb(0%, 0%, 0%)" fill-opacity="1"
        d="M 963.65625 309.21875 L 1887.660156 309.21875 C 1964.230469 309.21875 2026.871094 372.21875 2026.871094 449.21875 L 2026.871094 2386.136719 C 2026.871094 2463.136719 1964.230469 2526.136719 1887.660156 2526.136719 L 963.65625 2526.136719 C 887.15625 2526.136719 824.519531 2463.136719 824.519531 2386.136719 L 824.519531 1137.96875 L 820.625 1137.96875 C 813.550781 1137.96875 807.777344 1132.121094 807.777344 1125.050781 L 807.777344 813.730469 C 807.777344 806.660156 813.550781 800.878906 820.625 800.878906 L 824.519531 800.878906 L 824.519531 760.691406 L 820.625 760.691406 C 813.550781 760.691406 807.777344 754.921875 807.777344 747.839844 L 807.777344 677.628906 C 807.777344 670.480469 813.550781 664.710938 820.625 664.710938 L 824.519531 664.710938 L 824.519531 449.21875 C 824.519531 372.21875 887.15625 309.21875 963.65625 309.21875 Z M 1750.761719 366.160156 L 1750.761719 384.699219 C 1750.761719 421.371094 1720.960938 451.378906 1684.511719 451.378906 L 1166.871094 451.378906 C 1130.429688 451.378906 1100.628906 421.371094 1100.628906 384.699219 L 1100.628906 366.160156 L 963.65625 366.160156 C 918.265625 366.160156 881.171875 403.539062 881.171875 449.21875 L 881.171875 2386.136719 C 881.171875 2431.816406 918.265625 2469.128906 963.65625 2469.128906 L 1887.660156 2469.128906 C 1933.050781 2469.128906 1970.210938 2431.816406 1970.210938 2386.136719 L 1970.210938 449.21875 C 1970.210938 403.539062 1933.050781 366.160156 1887.660156 366.160156 L 1750.761719 366.160156 " />
</svg>